# xmcd CD database file
#
# Track frame offsets:
#	150
#	8482
#	19942
#	47662
#	73862
#	93882
#	104282
#	127120
#	141552
#	159040
#	179042
#	199040
#	225827
#	253905
#	267425
#	281272
#	300420
#
# Disc length: 4310 seconds
#
# Revision: 1
# Processed by: cddbd v1.5.2PL0 Copyright (c) Steve Scherf et al.
# Submitted via: CDex 1.51
#
DISCID=e510d411
DTITLE=コナミ - コナミ･オールスターズ ～千両箱 平成四年版～  disc 3. コナミ･ゲームサウンドヒストリー 1986～1987
DYEAR=1991
DGENRE=ゲーム音楽
TTITLE0=マンハッタン24分署
TTITLE1=Mr.五右衛門
TTITLE2=沙羅曼陀
TTITLE3=特殊部隊ジャッカル
TTITLE4=恋のホットロック
TTITLE5=ダブルドリブル
TTITLE6=魂斗羅
TTITLE7=大列車強盗
TTITLE8=コンバットスクール
TTITLE9=ライフフォース
TTITLE10=バトランティス
TTITLE11=フラック･アタック
TTITLE12=魔獣の王国
TTITLE13=ハイバークラッシュ
TTITLE14=ザ･ハスラー
TTITLE15=シティボンバー
TTITLE16=A-JAX
EXTD=YEAR: 1991
EXTT0=
EXTT1=
EXTT2=
EXTT3=
EXTT4=
EXTT5=
EXTT6=
EXTT7=
EXTT8=
EXTT9=
EXTT10=
EXTT11=
EXTT12=
EXTT13=
EXTT14=
EXTT15=
EXTT16=
PLAYORDER=
